<svg viewBox="0 0 1433 400" xmlns="http://www.w3.org/2000/svg"><g><g><g><g><g><line x1="70" y1="378" x2="65" y2="378" style="visibility: inherit;" fill="rgb(0, 0, 0)" stroke="rgb(204, 204, 204)" stroke-width="1px"></line><line x1="70" y1="346.5" x2="65" y2="346.5" style="visibility: inherit;" fill="rgb(0, 0, 0)" stroke="rgb(204, 204, 204)" stroke-width="1px"></line><line x1="70" y1="315.00000000000006" x2="65" y2="315.00000000000006" style="visibility: inherit;" fill="rgb(0, 0, 0)" stroke="rgb(204, 204, 204)" stroke-width="1px"></line><line x1="70" y1="283.5" x2="65" y2="283.5" style="visibility: inherit;" fill="rgb(0, 0, 0)" stroke="rgb(204, 204, 204)" stroke-width="1px"></line><line x1="70" y1="252" x2="65" y2="252" style="visibility: inherit;" fill="rgb(0, 0, 0)" stroke="rgb(204, 204, 204)" stroke-width="1px"></line><line x1="70" y1="220.49999999999997" x2="65" y2="220.49999999999997" style="visibility: inherit;" fill="rgb(0, 0, 0)" stroke="rgb(204, 204, 204)" stroke-width="1px"></line><line x1="70" y1="188.99999999999997" x2="65" y2="188.99999999999997" style="visibility: inherit;" fill="rgb(0, 0, 0)" stroke="rgb(204, 204, 204)" stroke-width="1px"></line><line x1="70" y1="157.5000000000001" x2="65" y2="157.5000000000001" style="visibility: inherit;" fill="rgb(0, 0, 0)" stroke="rgb(204, 204, 204)" stroke-width="1px"></line><line x1="70" y1="126.00000000000009" x2="65" y2="126.00000000000009" style="visibility: inherit;" fill="rgb(0, 0, 0)" stroke="rgb(204, 204, 204)" stroke-width="1px"></line><line x1="70" y1="94.50000000000006" x2="65" y2="94.50000000000006" style="visibility: inherit;" fill="rgb(0, 0, 0)" stroke="rgb(204, 204, 204)" stroke-width="1px"></line><line x1="70" y1="63" x2="65" y2="63" style="visibility: inherit;" fill="rgb(0, 0, 0)" stroke="rgb(204, 204, 204)" stroke-width="1px"></line><line x1="70" y1="31.5" x2="65" y2="31.5" style="visibility: inherit;" fill="rgb(0, 0, 0)" stroke="rgb(204, 204, 204)" stroke-width="1px"></line><line x1="70" y1="0" x2="65" y2="0" style="visibility: inherit;" fill="rgb(0, 0, 0)" stroke="rgb(204, 204, 204)" stroke-width="1px"></line></g><g transform="translate(60, 0)"><text x="0" y="378" dx="0em" dy="0.3em" style="text-anchor: end; visibility: hidden; font-family: &quot;Helvetica Neue&quot;, sans-serif; font-size: 12px; font-weight: 200;" fill="rgb(50, 49, 63)" stroke="none" stroke-width="1px">0.440</text><text x="0" y="346.5" dx="0em" dy="0.3em" style="text-anchor: end; visibility: inherit; font-family: &quot;Helvetica Neue&quot;, sans-serif; font-size: 12px; font-weight: 200;" fill="rgb(50, 49, 63)" stroke="none" stroke-width="1px">0.460</text><text x="0" y="315.00000000000006" dx="0em" dy="0.3em" style="text-anchor: end; visibility: inherit; font-family: &quot;Helvetica Neue&quot;, sans-serif; font-size: 12px; font-weight: 200;" fill="rgb(50, 49, 63)" stroke="none" stroke-width="1px">0.480</text><text x="0" y="283.5" dx="0em" dy="0.3em" style="text-anchor: end; visibility: inherit; font-family: &quot;Helvetica Neue&quot;, sans-serif; font-size: 12px; font-weight: 200;" fill="rgb(50, 49, 63)" stroke="none" stroke-width="1px">0.500</text><text x="0" y="252" dx="0em" dy="0.3em" style="text-anchor: end; visibility: inherit; font-family: &quot;Helvetica Neue&quot;, sans-serif; font-size: 12px; font-weight: 200;" fill="rgb(50, 49, 63)" stroke="none" stroke-width="1px">0.520</text><text x="0" y="220.49999999999997" dx="0em" dy="0.3em" style="text-anchor: end; visibility: inherit; font-family: &quot;Helvetica Neue&quot;, sans-serif; font-size: 12px; font-weight: 200;" fill="rgb(50, 49, 63)" stroke="none" stroke-width="1px">0.540</text><text x="0" y="188.99999999999997" dx="0em" dy="0.3em" style="text-anchor: end; visibility: inherit; font-family: &quot;Helvetica Neue&quot;, sans-serif; font-size: 12px; font-weight: 200;" fill="rgb(50, 49, 63)" stroke="none" stroke-width="1px">0.560</text><text x="0" y="157.5000000000001" dx="0em" dy="0.3em" style="text-anchor: end; visibility: inherit; font-family: &quot;Helvetica Neue&quot;, sans-serif; font-size: 12px; font-weight: 200;" fill="rgb(50, 49, 63)" stroke="none" stroke-width="1px">0.580</text><text x="0" y="126.00000000000009" dx="0em" dy="0.3em" style="text-anchor: end; visibility: inherit; font-family: &quot;Helvetica Neue&quot;, sans-serif; font-size: 12px; font-weight: 200;" fill="rgb(50, 49, 63)" stroke="none" stroke-width="1px">0.600</text><text x="0" y="94.50000000000006" dx="0em" dy="0.3em" style="text-anchor: end; visibility: inherit; font-family: &quot;Helvetica Neue&quot;, sans-serif; font-size: 12px; font-weight: 200;" fill="rgb(50, 49, 63)" stroke="none" stroke-width="1px">0.620</text><text x="0" y="63" dx="0em" dy="0.3em" style="text-anchor: end; visibility: inherit; font-family: &quot;Helvetica Neue&quot;, sans-serif; font-size: 12px; font-weight: 200;" fill="rgb(50, 49, 63)" stroke="none" stroke-width="1px">0.640</text><text x="0" y="31.5" dx="0em" dy="0.3em" style="text-anchor: end; visibility: inherit; font-family: &quot;Helvetica Neue&quot;, sans-serif; font-size: 12px; font-weight: 200;" fill="rgb(50, 49, 63)" stroke="none" stroke-width="1px">0.660</text><text x="0" y="0" dx="0em" dy="0.3em" style="text-anchor: end; visibility: hidden; font-family: &quot;Helvetica Neue&quot;, sans-serif; font-size: 12px; font-weight: 200;" fill="rgb(50, 49, 63)" stroke="none" stroke-width="1px">0.680</text></g><line x1="70" y1="0" x2="70" y2="378" fill="rgb(0, 0, 0)" stroke="rgb(204, 204, 204)" stroke-width="1px"></line></g></g><g transform="translate(70, 0)" clip-path="url(#clip_0)"><clipPath id="clip_0"><rect width="1363" height="378"></rect></clipPath><g><g><g><line x1="0" y1="0" x2="0" y2="378" fill="rgb(0, 0, 0)" stroke="rgb(60, 60, 60)" stroke-width="1px" opacity="0.25"></line><line x1="170.375" y1="0" x2="170.375" y2="378" fill="rgb(0, 0, 0)" stroke="rgb(60, 60, 60)" stroke-width="1px" opacity="0.25"></line><line x1="340.75" y1="0" x2="340.75" y2="378" fill="rgb(0, 0, 0)" stroke="rgb(60, 60, 60)" stroke-width="1px" opacity="0.25"></line><line x1="511.125" y1="0" x2="511.125" y2="378" fill="rgb(0, 0, 0)" stroke="rgb(60, 60, 60)" stroke-width="1px" opacity="0.25"></line><line x1="681.5" y1="0" x2="681.5" y2="378" fill="rgb(0, 0, 0)" stroke="rgb(60, 60, 60)" stroke-width="1px" opacity="0.25"></line><line x1="851.875" y1="0" x2="851.875" y2="378" fill="rgb(0, 0, 0)" stroke="rgb(60, 60, 60)" stroke-width="1px" opacity="0.25"></line><line x1="1022.25" y1="0" x2="1022.25" y2="378" fill="rgb(0, 0, 0)" stroke="rgb(60, 60, 60)" stroke-width="1px" opacity="0.25"></line><line x1="1192.625" y1="0" x2="1192.625" y2="378" fill="rgb(0, 0, 0)" stroke="rgb(60, 60, 60)" stroke-width="1px" opacity="0.25"></line><line x1="1363" y1="0" x2="1363" y2="378" fill="rgb(0, 0, 0)" stroke="rgb(60, 60, 60)" stroke-width="1px" opacity="0.25"></line></g><g><line x1="0" y1="378" x2="1363" y2="378" fill="rgb(0, 0, 0)" stroke="rgb(60, 60, 60)" stroke-width="1px" opacity="0.25"></line><line x1="0" y1="346.5" x2="1363" y2="346.5" fill="rgb(0, 0, 0)" stroke="rgb(60, 60, 60)" stroke-width="1px" opacity="0.25"></line><line x1="0" y1="315.00000000000006" x2="1363" y2="315.00000000000006" fill="rgb(0, 0, 0)" stroke="rgb(60, 60, 60)" stroke-width="1px" opacity="0.25"></line><line x1="0" y1="283.5" x2="1363" y2="283.5" fill="rgb(0, 0, 0)" stroke="rgb(60, 60, 60)" stroke-width="1px" opacity="0.25"></line><line x1="0" y1="252" x2="1363" y2="252" fill="rgb(0, 0, 0)" stroke="rgb(60, 60, 60)" stroke-width="1px" opacity="0.25"></line><line x1="0" y1="220.49999999999997" x2="1363" y2="220.49999999999997" fill="rgb(0, 0, 0)" stroke="rgb(60, 60, 60)" stroke-width="1px" opacity="0.25"></line><line x1="0" y1="188.99999999999997" x2="1363" y2="188.99999999999997" fill="rgb(0, 0, 0)" stroke="rgb(60, 60, 60)" stroke-width="1px" opacity="0.25"></line><line x1="0" y1="157.5000000000001" x2="1363" y2="157.5000000000001" fill="rgb(0, 0, 0)" stroke="rgb(60, 60, 60)" stroke-width="1px" opacity="0.25"></line><line x1="0" y1="126.00000000000009" x2="1363" y2="126.00000000000009" fill="rgb(0, 0, 0)" stroke="rgb(60, 60, 60)" stroke-width="1px" opacity="0.25"></line><line x1="0" y1="94.50000000000006" x2="1363" y2="94.50000000000006" fill="rgb(0, 0, 0)" stroke="rgb(60, 60, 60)" stroke-width="1px" opacity="0.25"></line><line x1="0" y1="63" x2="1363" y2="63" fill="rgb(0, 0, 0)" stroke="rgb(60, 60, 60)" stroke-width="1px" opacity="0.25"></line><line x1="0" y1="31.5" x2="1363" y2="31.5" fill="rgb(0, 0, 0)" stroke="rgb(60, 60, 60)" stroke-width="1px" opacity="0.25"></line><line x1="0" y1="0" x2="1363" y2="0" fill="rgb(0, 0, 0)" stroke="rgb(60, 60, 60)" stroke-width="1px" opacity="0.25"></line></g></g></g><g><g><line x1="0" y1="1071" x2="1363" y2="1071" fill="rgb(0, 0, 0)" stroke="rgb(153, 153, 153)" stroke-width="1.5px"></line></g></g><g><g><line x1="170.375" y1="0" x2="170.375" y2="378" fill="rgb(0, 0, 0)" stroke="rgb(153, 153, 153)" stroke-width="1.5px"></line></g></g><g><g><g><g><g><path stroke="rgb(238, 51, 119)" stroke-width="2px" d="M170.375,350.0721595287323L177.19,256.70876363664865L184.00500000000002,216.53021256412794L190.82000000000002,201.78912762267635L197.635,188.6362710289454L204.45,174.61846258261582L211.265,162.62928729000606L218.08,160.9388560967374L224.895,153.381988571993L231.71,150.20380580524997L238.52499999999998,144.3981281041382L245.34,139.62643573618783L252.155,136.7700766478717L258.97,133.75867029526742L265.785,128.0545819012678L272.6,124.63384581433513L279.41499999999996,126.47960408377756L286.22999999999996,119.79222251176566L293.045,111.88310587080235L299.86,100.64286112684573L306.675,91.30095947905852L313.49,81.79901343877583L320.305,82.59282289774L327.12,68.7803837202614L333.935,65.68882343060056L340.75,69.02978585381419L347.565,63.24054429608566L354.38,55.87007829138196L361.195,55.344725490289704L368.01000000000005,57.62743778666078L374.82500000000005,49.90429460864755L381.64000000000004,62.15702466645888L388.455,53.92100900707612L395.27,48.97939986314958L402.085,53.80824198873978L408.9,50.210701396028355L415.715,49.35117626251929L422.53,39.742654574372295L429.345,36.57550241984109L436.16,39.87105769620126L442.975,47.044274971908635L449.79,43.55439794254818L456.605,47.955317475829816L463.42,46.6989467251712L470.23499999999996,43.34720099583677L477.04999999999995,41.336153558459046L483.86499999999995,36.232602626828L490.68,39.66531781606494L497.495,31.333216263257214L504.31,30.230840249888956L511.125,33.466337111031464L517.94,32.80971194889088L524.755,42.80746751778645L531.57,41.012313471752634L538.385,36.03829857499187L545.2,44.74461949343282L552.015,47.370488765686105L558.8299999999999,45.04908785989818L565.645,42.35728567702131L572.4599999999999,39.44324272789095L579.275,41.591701876625564L586.09,41.58181572646237L592.905,40.276922396959776L599.72,35.597063930119134L606.535,32.78914885001478L613.35,31.10439980195207L620.1650000000001,28.79458873371044L626.98,30.00666292250014L633.7950000000001,33.33183071458251L640.61,28.832085641884248L647.425,30.029161067404573L654.24,25.551522214173247L661.055,29.359784650181894L667.87,31.64474211178748L674.685,39.51056233669834L681.5,39.034170363101396L688.315,36.15041190013471L695.13,30.523234353215628L701.945,33.64177357301179L708.76,34.21393546548529L715.575,46.24796245746046L722.39,45.67453371436744L729.205,42.73255318970291L736.0200000000001,42.266326514308616L742.835,38.08970559085907L749.6500000000001,34.28473384645872L756.465,35.898673268957566L763.2800000000001,34.269113643648495L770.0949999999999,34.590339507867384L776.91,33.48411338699424L783.7249999999999,39.3152234624182L790.54,37.61800539912906L797.3549999999999,35.300712921751426L804.17,37.807222353537554L810.985,34.11524390406595L817.8,30.601095194978654L824.615,29.791567608930677L831.43,29.305851057301652L838.245,31.612381956059153L845.06,31.697338855909265L851.875,47.3359277705236L858.69,48.92527373193997L865.505,51.177842948194154L872.32,42.137616260859886L879.135,44.507325186737546L885.95,40.73326643372076L892.765,38.46883118191056L899.58,37.110170030824406L906.3950000000001,33.6970125104379L913.21,35.546040467345165L920.0250000000001,36.6554572414895L926.84,37.32110730597611L933.6550000000001,37.720497344668104L940.4699999999999,36.661169728479194L947.285,33.42761232903081L954.0999999999999,28.889554610553205L960.915,35.25948900622302L967.7299999999999,37.78248800422051L974.545,44.49217151156245L981.36,49.81694325537188L988.175,51.71284466225336L994.99,56.74730797552138L1001.805,54.572101854938694L1008.62,53.26697818258907L1015.435,51.184942339775034L1022.25,52.53364411289516L1029.065,50.74494189795871L1035.88,49.671720568996875L1042.695,47.72878858128922L1049.51,42.66614447045157L1056.325,44.82444211249259L1063.14,48.71734397652568L1069.9550000000002,48.455161816137036L1076.77,50.89577579871252L1083.585,52.36014418825761L1090.4,51.939803582580566L1097.2150000000001,49.089638389439415L1104.03,48.678538463885275L1110.845,66.61741656206522L1117.6599999999999,60.49416700686493L1124.475,54.22225644401004L1131.29,43.96426435834934L1138.105,35.21154582814444L1144.9199999999998,35.15579881856485L1151.735,29.926466504273606L1158.55,29.3867903945075L1165.365,31.660945558382593L1172.18,38.22132276525116L1178.995,33.064742511689815L1185.81,29.970794359552997" style="fill: none;" fill="none"></path></g><g><path stroke="rgb(51, 187, 238)" stroke-width="2px" d="M170.375,324.0927859246731L177.19,253.05543989315632L184.00500000000002,221.36818480917384L190.82000000000002,201.41902062044883L197.635,182.79270667542934L204.45,161.68895308721008L211.265,152.34774695244485L218.08,142.94978262897564L224.895,134.7886474785497L231.71,137.7861439295034L238.52499999999998,136.96561695877725L245.34,127.36260493032253L252.155,128.11753311675824L258.97,128.56985850102132L265.785,128.8410267698212L272.6,127.70428035286437L279.41499999999996,117.92812938881139L286.22999999999996,113.3625915497393L293.045,110.6235656169082L299.86,108.98025688045124L306.675,105.39632982130865L313.49,104.54500264034505L320.305,102.73524160544622L327.12,95.1545176084278L333.935,98.39993574474715L340.75,96.45025160477758L347.565,97.8784067380385L354.38,100.0342613195943L361.195,96.13188719823114L368.01000000000005,97.68738697628817L374.82500000000005,97.3217248113346L381.64000000000004,107.49405903660772L388.455,109.70057394934236L395.27,103.23063766796815L402.085,104.54456021564579L408.9,100.13702956766048L415.715,97.4925112079643L422.53,93.30787691416577L429.345,90.79709634783131L436.16,90.5895896527511L442.975,90.46508563588083L449.79,89.09142158579306L456.605,86.96826151638402L463.42,88.29228875438963L470.23499999999996,81.29289770888403L477.04999999999995,71.89737897317906L483.86499999999995,77.9507975890595L490.68,72.4900797314823L497.495,73.11053393527988L504.31,65.68899907013815L511.125,63.83400142991269L517.94,65.31896367552548L524.755,64.91097938348383L531.57,73.75895783502517L538.385,69.97497587918207L545.2,67.70458670567763L552.015,62.44543073243557L558.8299999999999,57.99097550908641L565.645,55.31830237507768L572.4599999999999,45.92089110732019L579.275,37.68448351693098L586.09,35.340599792432386L592.905,43.02703858448973L599.72,48.9378634991283L606.535,57.680242556454914L613.35,57.72978588230717L620.1650000000001,74.64612584285334L626.98,66.61035421474236L633.7950000000001,59.19096795906694L640.61,45.646529627979135L647.425,45.31367401667865L654.24,42.51603737108945L661.055,51.22922360082282L667.87,44.766405482172104L674.685,42.18767625038572L681.5,36.74351624217479L688.315,36.074981066983014L695.13,30.477975853324665L701.945,27.11977272512962L708.76,25.10485084821272L715.575,23.895897722062443L722.39,20.57260256756365L729.205,22.475510393077343L736.0200000000001,26.215215918120236L742.835,28.459039233145916L749.6500000000001,53.18675538421735L756.465,65.42546179605165L763.2800000000001,67.57280153460886L770.0949999999999,57.17047552125206L776.91,52.22804155264237L783.7249999999999,47.9636195320723L790.54,44.106004680325896L797.3549999999999,41.791435769277996L804.17,43.00061770145777L810.985,42.42716522136135L817.8,45.980016202442755L824.615,44.214804321952386L831.43,31.464947337167303L838.245,25.114032336626565L845.06,36.8910981110061L851.875,46.55526085444234L858.69,38.065105365204545L865.505,40.76481945901389L872.32,42.38464791529941L879.135,42.05758334966646L885.95,43.160306249690905L892.765,43.82193998970553L899.58,41.62099695490565L906.3950000000001,41.59939277343017L913.21,46.782314373088354L920.0250000000001,42.09825994553108L926.84,37.988865649592526L933.6550000000001,38.121152350837974L940.4699999999999,48.59229258867214L947.285,60.0708232889898L954.0999999999999,66.95794170918037L960.915,67.1933278430817L967.7299999999999,60.83971377547482L974.545,47.934738757228274L981.36,42.789714576015L988.175,33.2078543193395L994.99,30.056661444142776L1001.805,33.3618298275681L1008.62,40.540814966166806L1015.435,33.15747619283502L1022.25,40.418202785326855L1029.065,46.07360038022637L1035.88,49.46683893716602L1042.695,52.801743710733945L1049.51,59.99857068341828L1056.325,56.522859479676924L1063.14,47.942587009484384L1069.9550000000002,33.7016169496863L1076.77,29.05395738294675L1083.585,28.863284921711283L1090.4,30.0478806353006L1097.2150000000001,28.160677233719525L1104.03,34.822162580122836L1110.845,31.02524640061273L1117.6599999999999,31.345057522641525L1124.475,34.134867474667374L1131.29,37.10771508528717L1138.105,45.38626939960693L1144.9199999999998,42.559594600846594L1151.735,38.265666442781765L1158.55,31.792387078803927L1165.365,34.4032652083647L1172.18,35.96979208610128L1178.995,35.61074657333904L1185.81,36.69428090508586" style="fill: none;" fill="none"></path></g><g><path stroke="rgb(204, 51, 17)" stroke-width="2px" d="M170.375,320.84538182616234L177.19,296.48970440402627L184.00500000000002,277.43596510802L190.82000000000002,227.24319500399423L197.635,204.4587183188308L204.45,186.5272983259669L211.265,173.64651431645214L218.08,159.546959295992L224.895,152.55251845670415L231.71,144.48064937774913L238.52499999999998,134.45407521157787L245.34,123.25424312256652L252.155,117.8506276083404L258.97,115.91299657865693L265.785,116.05096287829332L272.6,114.8343729355941L279.41499999999996,114.10463866373385L286.22999999999996,116.2650643117965L293.045,111.06593772610864L299.86,110.54468280944127L306.675,110.23194205676822L313.49,112.64229702098015L320.305,115.38746159280345L327.12,111.83863773227893L333.935,107.11142351323002L340.75,108.17199514876125L347.565,110.10733749207344L354.38,111.26854163034506L361.195,105.47041551591428L368.01000000000005,103.29050314109571L374.82500000000005,100.68359421293047L381.64000000000004,100.41841082012223L388.455,96.36237814271959L395.27,95.22772033685652L402.085,95.84592488680613L408.9,94.91784840624541L415.715,93.062040876592L422.53,97.14444049398708L429.345,99.59388025472293L436.16,101.06354410767136L442.975,99.34741913729113L449.79,99.61670579597319L456.605,102.37620107065817L463.42,104.03189823495927L470.23499999999996,103.72635489381713L477.04999999999995,99.64610641976998L483.86499999999995,102.3938414442423L490.68,98.84659835019983L497.495,98.01725168417346L504.31,96.22064449422362L511.125,97.74064101001056L517.94,97.35367728006997L524.755,99.71942232091925L531.57,98.54094606661516L538.385,118.61735919729364L545.2,133.2611303545023L552.015,143.3463546882287L558.8299999999999,154.59337339700687L565.645,140.55808573902385L572.4599999999999,136.03383561337432L579.275,130.72132470824965L586.09,124.93589488636624L592.905,120.16567535383206L599.72,113.40662116517228L606.535,109.35118865197666L613.35,106.91792914405909L620.1650000000001,106.75693507871313L626.98,105.36137700010124L633.7950000000001,104.52404215293421L640.61,104.02164124463371L647.425,103.7202006996535L654.24,103.53933637266533L661.055,104.72977941587658L667.87,105.44404524180356L674.685,107.17156637676402L681.5,108.20807905774035L688.315,110.12898585665664L695.13,109.98253074567577L701.945,109.89465767908723L708.76,112.43989466886904L715.575,115.26599850214234L722.39,116.96166080210634L729.205,117.97905818208471L736.0200000000001,118.58949661007182L742.835,122.85268213600312L749.6500000000001,122.8126326218271L756.465,121.48964127391724L763.2800000000001,128.4896538525233L770.0949999999999,136.58658386882598L776.91,146.64062598715105L783.7249999999999,153.9720128975503L790.54,142.78319271815977L797.3549999999999,137.36889980085593L804.17,130.2234015813345L810.985,122.03918018048253L817.8,115.8296857005671L824.615,110.80502737321353L831.43,107.79023237680138L838.245,104.6823937395497L845.06,100.21972972746403L851.875,98.841130510543L858.69,99.31293261979476L865.505,98.29705224594159L872.32,101.58440893984249L879.135,103.556822956183L885.95,102.14234808717879L892.765,98.6957023360415L899.58,91.43186832774177L906.3950000000001,90.97045284097487L913.21,91.99256518831902L920.0250000000001,95.20379342646032L926.84,94.53256953961045L933.6550000000001,98.02675767663942L940.4699999999999,97.52534728004838L947.285,92.02861693355027L954.0999999999999,91.32850200446L960.915,97.40327879495351L967.7299999999999,104.94506733838864L974.545,104.27425635590657L981.36,111.66557715376928L988.175,107.00760060573043L994.99,102.91385303750297L1001.805,97.85964366683157L1008.62,93.52815640502445L1015.435,106.51687882264429L1022.25,107.81526652526833L1029.065,109.89329833717346L1035.88,109.84111823398598L1042.695,109.8098101720733L1049.51,103.29617958697821L1056.325,101.98596206565577L1063.14,102.49879319226682L1069.9550000000002,98.90956939909415L1076.77,95.45707348378636L1083.585,93.38557593460166L1090.4,92.14267740509092L1097.2150000000001,93.99489911711919L1104.03,97.70415542314493L1110.845,101.22867084616445L1117.6599999999999,104.64234173938041L1124.475,106.69054427531L1131.29,109.21846498719839L1138.105,109.43621822400081L1144.9199999999998,109.56687016608225L1151.735,109.64526133133108L1158.55,105.79541111226763L1165.365,100.8875401510947L1172.18,104.43766332233866L1178.995,101.37189066746788L1185.81,95.63550460540631" style="fill: none;" fill="none"></path></g><g><path stroke="rgb(0, 119, 187)" stroke-width="2px" d="M170.375,246.15466511249545L177.19,221.79895835369828L184.00500000000002,211.0294521025249L190.82000000000002,200.3086633743609L197.635,197.65740319480497L204.45,200.29264378166732L211.265,200.45646258768804L218.08,197.90946493425687L224.895,201.6576659099018L231.71,207.80289357621118L238.52499999999998,198.4291732569827L245.34,192.82675339821404L252.155,179.06775831197425L258.97,168.22391049320186L265.785,155.2251419188882L272.6,147.4297934466209L279.41499999999996,145.3523551546449L286.22999999999996,146.70434195782013L293.045,147.51544615742864L299.86,149.30108617700168L306.675,151.6714185401859L313.49,151.7946059422414L320.305,151.868517345762L327.12,150.61389601989487L333.935,148.56216169670483L340.75,148.630088691206L347.565,147.37188184486854L354.38,145.317958573196L361.195,144.08560541742608L368.01000000000005,143.34619381456824L374.82500000000005,146.79946994351505L381.64000000000004,144.97451254844398L388.455,139.98265310005968L395.27,136.98753758358671L402.085,133.89150666688903L408.9,130.73488894720433L415.715,128.84091833623094L422.53,127.7045359771486L429.345,127.0227065643997L436.16,124.01568563544103L442.975,123.51043472108469L449.79,124.5062458127596L456.605,126.40273165816336L463.42,127.5406231650552L470.23499999999996,128.2233580690642L477.04999999999995,126.03503818152723L483.86499999999995,119.52616214035459L490.68,118.21879734559997L497.495,113.53745599957443L504.31,112.02761283141444L511.125,111.12170693052605L517.94,117.07300913796263L524.755,115.44794390478705L531.57,115.77186640428931L538.385,112.06929743484869L545.2,113.74467852232635L552.015,121.24475292276207L558.8299999999999,108.85818359798543L565.645,91.03451133695899L572.4599999999999,88.13411536769655L579.275,81.19799367759578L586.09,71.84043655499175L592.905,71.42178638997291L599.72,68.57267301215302L606.535,65.56420579513036L613.35,68.95500957346053L620.1650000000001,67.09260692224552L626.98,65.97516533151668L633.7950000000001,58.80985462913151L640.61,55.809629847104645L647.425,57.9063798961015L654.24,64.36031403404309L661.055,63.03679040826461L667.87,63.54167542312808L674.685,63.84460643204619L681.5,62.72736584706644L688.315,65.95394396521777L695.13,67.88989083610858L701.945,67.75249731923867L708.76,65.07210037938194L715.575,63.46386221546783L722.39,65.09688014685423L729.205,66.07669090568612L736.0200000000001,65.36561572158092L742.835,64.93897061111778L749.6500000000001,63.38398435450932L756.465,68.94583834849209L763.2800000000001,63.190181718125416L770.0949999999999,66.23163348785323L776.91,66.75754291028551L783.7249999999999,67.07308856374499L790.54,65.96345431641618L797.3549999999999,67.89559704682762L804.17,69.05488268507457L810.985,71.04941570742682L817.8,69.64821224202962L824.615,70.10645180219558L831.43,65.18551142975184L838.245,68.72779295423334L845.06,70.85316186892214L851.875,66.93249910919207L858.69,67.17806228308876L865.505,63.42847771828764L872.32,63.77668780914183L879.135,62.686614673323845L885.95,67.22845490037645L892.765,64.75767492806449L899.58,64.5742061350079L906.3950000000001,63.16512566884347L913.21,61.02071574974053L920.0250000000001,59.73406979827871L926.84,57.66312058799747L933.6550000000001,59.01847434063711L940.4699999999999,61.13068578255155L947.285,61.09901345736978L954.0999999999999,62.37900925259112L960.915,63.147006729723955L967.7299999999999,64.90676685540791L974.545,64.66366129141403L981.36,63.21879876268713L988.175,59.75395796664236L994.99,56.376091849611385L1001.805,53.05041053998855L1008.62,51.05500175421474L1015.435,51.15671812215476L1022.25,47.320825473779735L1029.065,46.31825152415894L1035.88,47.015706344716875L1042.695,60.423870732947194L1049.51,67.16977017555485L1056.325,64.7224640931716L1063.14,67.15100291288098L1069.9550000000002,68.60812620470654L1076.77,68.18343854039739L1083.585,64.03170347267275L1090.4,56.34477832349472L1097.2150000000001,53.031622424318584L1104.03,61.43545955097346L1110.845,59.98291607901854L1117.6599999999999,56.51346671703698L1124.475,54.43179709984793L1131.29,50.58483449979991L1138.105,46.977695300366804L1144.9199999999998,48.71033424984597L1151.735,47.15195678979859L1158.55,51.41281442231366L1165.365,53.96932900182264L1172.18,50.30735364098456L1178.995,45.51224514567309L1185.81,40.037256769677754" style="fill: none;" fill="none"></path></g><g><path stroke="rgb(255, 112, 67)" stroke-width="2px" d="M170.375,327.34019002318377L177.19,323.2809349000454L184.00500000000002,322.03830578071734L190.82000000000002,319.9976922734915L197.635,316.139860637398L204.45,312.6640159968091L211.265,309.3489149684554L218.08,307.4202619997436L224.895,303.6596235571009L231.71,297.50703300652117L238.52499999999998,280.8023667296567L245.34,259.1022422477789L252.155,239.6090988602464L258.97,226.62950168268458L265.785,217.54868342518228L272.6,212.10292582700154L279.41499999999996,210.1356362191566L286.22999999999996,210.25460672383187L293.045,209.02690294234128L299.86,208.29032855444618L306.675,210.44641897981975L313.49,211.74004296389384L320.305,212.51620645703693L327.12,212.98190062996144L333.935,211.96235038906468L340.75,211.35062209964076L347.565,212.28254876270526L354.38,205.04789197661304L361.195,190.31532870232292L368.01000000000005,180.17683228529634L374.82500000000005,172.7947740578448L381.64000000000004,170.9634632336232L388.455,171.1636385338009L395.27,169.98478203116892L402.085,170.5764298129405L408.9,170.93141847549404L415.715,171.14441167068296L422.53,167.37532265427L429.345,162.51590841785614L436.16,160.8992215240775L442.975,158.63024774874745L449.79,159.86682431569903L456.605,163.2066935350478L463.42,167.8085383452985L470.23499999999996,169.27068359139935L477.04999999999995,166.25108582050666L483.86499999999995,169.63517371590316L490.68,166.46977989532624L497.495,167.1684668818693L504.31,166.28871743437415L511.125,167.05982940529233L517.94,166.22353494843279L524.755,165.72175827431846L531.57,165.42069226985058L538.385,165.24005266716995L545.2,165.13166890556153L552.015,162.4686778188612L558.8299999999999,160.87088316684148L565.645,159.91220637562967L572.4599999999999,160.63599949123346L579.275,162.3692369999999L586.09,160.81121867552503L592.905,159.87640768083992L599.72,160.61452027435953L606.535,161.05738783047124L613.35,161.3231083641383L620.1650000000001,158.88457985460374L626.98,156.12250110947863L633.7950000000001,153.16629222299937L640.61,151.39256689111144L647.425,147.7303708622441L654.24,146.83205243525416L661.055,143.69510054932522L667.87,141.81292941776803L674.685,140.6836267388336L681.5,140.00604513147312L688.315,149.99126438414356L695.13,158.58031921455444L701.945,162.43479047339656L708.76,164.74747322870184L715.575,166.13508288188507L722.39,166.96764867379505L729.205,166.16822650953674L736.0200000000001,164.38961157157752L742.835,162.02344341847154L749.6500000000001,161.9027417169384L756.465,160.53132150568803L763.2800000000001,159.70846937893785L770.0949999999999,160.51375729321813L776.91,160.99693004178644L783.7249999999999,161.28683369092735L790.54,161.46077588041172L797.3549999999999,160.266142003772L804.17,159.5493616777881L810.985,157.8203318427935L817.8,158.08187558120105L824.615,153.04295526662835L831.43,156.51444882583237L838.245,153.4014608528115L845.06,147.63674559985992L851.875,142.8789548086846L858.69,140.0242803339794L865.505,137.01251400975195L872.32,137.80337749402418L879.135,139.57685722399182L885.95,136.7440601437594L892.765,135.04438189562015L899.58,136.62249822554486L906.3950000000001,138.86832966290416L913.21,141.5148277156503L920.0250000000001,143.1027265472979L926.84,144.05546584628647L933.6550000000001,147.22503270448829L940.4699999999999,149.12677281940927L947.285,150.26781688836192L954.0999999999999,152.2514049691379L960.915,154.74051945700762L967.7299999999999,158.8319489794643L974.545,159.98784505353404L981.36,161.98034433738022L988.175,159.27892143854874L994.99,157.65806769924987L1001.805,154.087632176862L1008.62,153.24433250283352L1015.435,152.73835269841652L1022.25,152.43476481576616L1029.065,149.65468880736753L1035.88,146.68764401199783L1042.695,143.60845549537166L1049.51,143.0599040248003L1056.325,144.02977233278784L1063.14,144.61169331758046L1069.9550000000002,146.25980754786025L1076.77,145.94971444662397L1083.585,144.46465939555168L1090.4,140.9757030860996L1097.2150000000001,138.8823293004283L1104.03,140.2242283078342L1110.845,139.73040607287348L1117.6599999999999,136.83618945308845L1124.475,135.0996594812173L1131.29,132.75877985869047L1138.105,118.36456058927888L1144.9199999999998,116.22287477557967L1151.735,114.9378632873603L1158.55,115.46581803383282L1165.365,126.17432154787696L1172.18,132.59942365630337L1178.995,132.5576000031464L1185.81,129.9345449815173" style="fill: none;" fill="none"></path></g></g></g></g><g opacity="0.2"><g><g><g><path stroke="rgb(238, 51, 119)" stroke-width="2px" d="M170.375,350.0721595287323L177.19,200.6907261013985L184.00500000000002,177.95880353450778L190.82000000000002,184.4536117315293L197.635,171.4639014601708L204.45,155.22678709030154L211.265,145.48457479476932L218.08,158.4741911888123L224.895,142.23707681894305L231.71,145.48457479476932L238.52499999999998,135.7422686219216L245.34,132.49486452341083L252.155,132.49486452341083L258.97,129.2474604249001L265.785,119.50515425205236L272.6,119.50515425205236L279.41499999999996,129.2474604249001L286.22999999999996,109.76284807920462L293.045,100.02063578367239L299.86,83.78352141380316L306.675,77.28861933946615L313.49,67.54640704393393L320.305,83.78352141380316L327.12,48.06188857555395L333.935,61.05150496959692L340.75,74.04121524095541L347.565,54.556696772575435L354.38,44.81439059972769L361.195,54.556696772575435L368.01000000000005,61.05150496959692L374.82500000000005,38.3195824027062L381.64000000000004,80.53611731529242L388.455,41.566986501216945L395.27,41.566986501216945L402.085,61.05150496959692L408.9,44.81439059972769L415.715,48.06188857555395L422.53,25.329872131347713L429.345,31.82477420568472L436.16,44.81439059972769L442.975,57.80410087108618L449.79,38.3195824027062L456.605,54.556696772575435L463.42,44.81439059972769L470.23499999999996,38.3195824027062L477.04999999999995,38.3195824027062L483.86499999999995,28.577276229858455L490.68,44.81439059972769L497.495,18.83506393432623L504.31,28.577276229858455L511.125,38.3195824027062L517.94,31.82477420568472L524.755,57.80410087108618L531.57,38.3195824027062L538.385,28.577276229858455L545.2,57.80410087108618L552.015,51.30929267406469L558.8299999999999,41.566986501216945L565.645,38.3195824027062L572.4599999999999,35.07217830419546L579.275,44.81439059972769L586.09,41.566986501216945L592.905,38.3195824027062L599.72,28.577276229858455L606.535,28.577276229858455L613.35,28.577276229858455L620.1650000000001,25.329872131347713L626.98,31.82477420568472L633.7950000000001,38.3195824027062L640.61,22.08246803283697L647.425,31.82477420568472L654.24,18.83506393432623L661.055,35.07217830419546L667.87,35.07217830419546L674.685,51.30929267406469L681.5,38.3195824027062L688.315,31.82477420568472L695.13,22.08246803283697L701.945,38.3195824027062L708.76,35.07217830419546L715.575,64.29900294542318L722.39,44.81439059972769L729.205,38.3195824027062L736.0200000000001,41.566986501216945L742.835,31.82477420568472L749.6500000000001,28.577276229858455L756.465,38.3195824027062L763.2800000000001,31.82477420568472L770.0949999999999,35.07217830419546L776.91,31.82477420568472L783.7249999999999,48.06188857555395L790.54,35.07217830419546L797.3549999999999,31.82477420568472L804.17,41.566986501216945L810.985,28.577276229858455L817.8,25.329872131347713L824.615,28.577276229858455L831.43,28.577276229858455L838.245,35.07217830419546L845.06,31.82477420568472L851.875,70.79381114244467L858.69,51.30929267406469L865.505,54.556696772575435L872.32,28.577276229858455L879.135,48.06188857555395L885.95,35.07217830419546L892.765,35.07217830419546L899.58,35.07217830419546L906.3950000000001,28.577276229858455L913.21,38.3195824027062L920.0250000000001,38.3195824027062L926.84,38.3195824027062L933.6550000000001,38.3195824027062L940.4699999999999,35.07217830419546L947.285,28.577276229858455L954.0999999999999,22.08246803283697L960.915,44.81439059972769L967.7299999999999,41.566986501216945L974.545,54.556696772575435L981.36,57.80410087108618L988.175,54.556696772575435L994.99,64.29900294542318L1001.805,51.30929267406469L1008.62,51.30929267406469L1015.435,48.06188857555395L1022.25,54.556696772575435L1029.065,48.06188857555395L1035.88,48.06188857555395L1042.695,44.81439059972769L1049.51,35.07217830419546L1056.325,48.06188857555395L1063.14,54.556696772575435L1069.9550000000002,48.06188857555395L1076.77,54.556696772575435L1083.585,54.556696772575435L1090.4,51.30929267406469L1097.2150000000001,44.81439059972769L1104.03,48.06188857555395L1110.845,93.52573370933538L1117.6599999999999,51.30929267406469L1124.475,44.81439059972769L1131.29,28.577276229858455L1138.105,22.08246803283697L1144.9199999999998,35.07217830419546L1151.735,22.08246803283697L1158.55,28.577276229858455L1165.365,35.07217830419546L1172.18,48.06188857555395L1178.995,25.329872131347713L1185.81,25.329872131347713" style="fill: none;" fill="none"></path></g><g><path stroke="rgb(51, 187, 238)" stroke-width="2px" d="M170.375,324.0927859246731L177.19,210.43303227424624L184.00500000000002,190.94841992855075L190.82000000000002,177.95880353450778L197.635,158.4741911888123L204.45,132.49486452341083L211.265,138.98967272043234L218.08,129.2474604249001L224.895,122.7525583505631L231.71,142.23707681894305L238.52499999999998,135.7422686219216L245.34,113.01034605503088L252.155,129.2474604249001L258.97,129.2474604249001L265.785,129.2474604249001L272.6,125.99996244907385L279.41499999999996,103.26803988218313L286.22999999999996,106.51544398069387L293.045,106.51544398069387L299.86,106.51544398069387L306.675,100.02063578367239L313.49,103.26803988218313L320.305,100.02063578367239L327.12,83.78352141380316L333.935,103.26803988218313L340.75,93.52573370933538L347.565,100.02063578367239L354.38,103.26803988218313L361.195,90.27832961082464L368.01000000000005,100.02063578367239L374.82500000000005,96.77323168516165L381.64000000000004,122.7525583505631L388.455,113.01034605503088L395.27,93.52573370933538L402.085,106.51544398069387L408.9,93.52573370933538L415.715,93.52573370933538L422.53,87.0309255123139L429.345,87.0309255123139L436.16,90.27832961082464L442.975,90.27832961082464L449.79,87.0309255123139L456.605,83.78352141380316L463.42,90.27832961082464L470.23499999999996,70.79381114244467L477.04999999999995,57.80410087108618L483.86499999999995,87.0309255123139L490.68,64.29900294542318L497.495,74.04121524095541L504.31,54.556696772575435L511.125,61.05150496959692L517.94,67.54640704393393L524.755,64.29900294542318L531.57,87.0309255123139L538.385,64.29900294542318L545.2,64.29900294542318L552.015,54.556696772575435L558.8299999999999,51.30929267406469L565.645,51.30929267406469L572.4599999999999,31.82477420568472L579.275,25.329872131347713L586.09,31.82477420568472L592.905,54.556696772575435L599.72,57.80410087108618L606.535,70.79381114244467L613.35,57.80410087108618L620.1650000000001,100.02063578367239L626.98,54.556696772575435L633.7950000000001,48.06188857555395L640.61,25.329872131347713L647.425,44.81439059972769L654.24,38.3195824027062L661.055,64.29900294542318L667.87,35.07217830419546L674.685,38.3195824027062L681.5,28.577276229858455L688.315,35.07217830419546L695.13,22.08246803283697L701.945,22.08246803283697L708.76,22.08246803283697L715.575,22.08246803283697L722.39,15.587659835815487L729.205,25.329872131347713L736.0200000000001,31.82477420568472L742.835,31.82477420568472L749.6500000000001,90.27832961082464L756.465,83.78352141380316L763.2800000000001,70.79381114244467L770.0949999999999,41.566986501216945L776.91,44.81439059972769L783.7249999999999,41.566986501216945L790.54,38.3195824027062L797.3549999999999,38.3195824027062L804.17,44.81439059972769L810.985,41.566986501216945L817.8,51.30929267406469L824.615,41.566986501216945L831.43,12.340161859989223L838.245,15.587659835815487L845.06,54.556696772575435L851.875,61.05150496959692L858.69,25.329872131347713L865.505,44.81439059972769L872.32,44.81439059972769L879.135,41.566986501216945L885.95,44.81439059972769L892.765,44.81439059972769L899.58,38.3195824027062L906.3950000000001,41.566986501216945L913.21,54.556696772575435L920.0250000000001,35.07217830419546L926.84,31.82477420568472L933.6550000000001,38.3195824027062L940.4699999999999,64.29900294542318L947.285,77.28861933946615L954.0999999999999,77.28861933946615L960.915,67.54640704393393L967.7299999999999,51.30929267406469L974.545,28.577276229858455L981.36,35.07217830419546L988.175,18.83506393432623L994.99,25.329872131347713L1001.805,38.3195824027062L1008.62,51.30929267406469L1015.435,22.08246803283697L1022.25,51.30929267406469L1029.065,54.556696772575435L1035.88,54.556696772575435L1042.695,57.80410087108618L1049.51,70.79381114244467L1056.325,51.30929267406469L1063.14,35.07217830419546L1069.9550000000002,12.340161859989223L1076.77,22.08246803283697L1083.585,28.577276229858455L1090.4,31.82477420568472L1097.2150000000001,25.329872131347713L1104.03,44.81439059972769L1110.845,25.329872131347713L1117.6599999999999,31.82477420568472L1124.475,38.3195824027062L1131.29,41.566986501216945L1138.105,57.80410087108618L1144.9199999999998,38.3195824027062L1151.735,31.82477420568472L1158.55,22.08246803283697L1165.365,38.3195824027062L1172.18,38.3195824027062L1178.995,35.07217830419546L1185.81,38.3195824027062" style="fill: none;" fill="none"></path></g><g><path stroke="rgb(204, 51, 17)" stroke-width="2px" d="M170.375,320.84538182616234L177.19,281.87629795074463L184.00500000000002,259.1443753838539L190.82000000000002,168.21649736166003L197.635,174.71130555868152L204.45,161.72168916463858L211.265,155.22678709030154L218.08,138.98967272043234L224.895,142.23707681894305L231.71,132.49486452341083L238.52499999999998,119.50515425205236L245.34,106.51544398069387L252.155,109.76284807920462L258.97,113.01034605503088L265.785,116.25775015354162L272.6,113.01034605503088L279.41499999999996,113.01034605503088L286.22999999999996,119.50515425205236L293.045,103.26803988218313L299.86,109.76284807920462L306.675,109.76284807920462L313.49,116.25775015354162L320.305,119.50515425205236L327.12,106.51544398069387L333.935,100.02063578367239L340.75,109.76284807920462L347.565,113.01034605503088L354.38,113.01034605503088L361.195,96.77323168516165L368.01000000000005,100.02063578367239L374.82500000000005,96.77323168516165L381.64000000000004,100.02063578367239L388.455,90.27832961082464L395.27,93.52573370933538L402.085,96.77323168516165L408.9,93.52573370933538L415.715,90.27832961082464L422.53,103.26803988218313L429.345,103.26803988218313L436.16,103.26803988218313L442.975,96.77323168516165L449.79,100.02063578367239L456.605,106.51544398069387L463.42,106.51544398069387L470.23499999999996,103.26803988218313L477.04999999999995,93.52573370933538L483.86499999999995,106.51544398069387L490.68,93.52573370933538L497.495,96.77323168516165L504.31,93.52573370933538L511.125,100.02063578367239L517.94,96.77323168516165L524.755,103.26803988218313L531.57,96.77323168516165L538.385,148.7319788932801L545.2,155.22678709030154L552.015,158.4741911888123L558.8299999999999,171.4639014601708L565.645,119.50515425205236L572.4599999999999,129.2474604249001L579.275,122.7525583505631L586.09,116.25775015354162L592.905,113.01034605503088L599.72,103.26803988218313L606.535,103.26803988218313L613.35,103.26803988218313L620.1650000000001,106.51544398069387L626.98,103.26803988218313L633.7950000000001,103.26803988218313L640.61,103.26803988218313L647.425,103.26803988218313L654.24,103.26803988218313L661.055,106.51544398069387L667.87,106.51544398069387L674.685,109.76284807920462L681.5,109.76284807920462L688.315,113.01034605503088L695.13,109.76284807920462L701.945,109.76284807920462L708.76,116.25775015354162L715.575,119.50515425205236L722.39,119.50515425205236L729.205,119.50515425205236L736.0200000000001,119.50515425205236L742.835,129.2474604249001L749.6500000000001,122.7525583505631L756.465,119.50515425205236L763.2800000000001,138.98967272043234L770.0949999999999,148.7319788932801L776.91,161.72168916463858L783.7249999999999,164.9690932631493L790.54,125.99996244907385L797.3549999999999,129.2474604249001L804.17,119.50515425205236L810.985,109.76284807920462L817.8,106.51544398069387L824.615,103.26803988218313L831.43,103.26803988218313L838.245,100.02063578367239L845.06,93.52573370933538L851.875,96.77323168516165L858.69,100.02063578367239L865.505,96.77323168516165L872.32,106.51544398069387L879.135,106.51544398069387L885.95,100.02063578367239L892.765,93.52573370933538L899.58,80.53611731529242L906.3950000000001,90.27832961082464L913.21,93.52573370933538L920.0250000000001,100.02063578367239L926.84,93.52573370933538L933.6550000000001,103.26803988218313L940.4699999999999,96.77323168516165L947.285,83.78352141380316L954.0999999999999,90.27832961082464L960.915,106.51544398069387L967.7299999999999,116.25775015354162L974.545,103.26803988218313L981.36,122.7525583505631L988.175,100.02063578367239L994.99,96.77323168516165L1001.805,90.27832961082464L1008.62,87.0309255123139L1015.435,125.99996244907385L1022.25,109.76284807920462L1029.065,113.01034605503088L1035.88,109.76284807920462L1042.695,109.76284807920462L1049.51,93.52573370933538L1056.325,100.02063578367239L1063.14,103.26803988218313L1069.9550000000002,93.52573370933538L1076.77,90.27832961082464L1083.585,90.27832961082464L1090.4,90.27832961082464L1097.2150000000001,96.77323168516165L1104.03,103.26803988218313L1110.845,106.51544398069387L1117.6599999999999,109.76284807920462L1124.475,109.76284807920462L1131.29,113.01034605503088L1138.105,109.76284807920462L1144.9199999999998,109.76284807920462L1151.735,109.76284807920462L1158.55,100.02063578367239L1165.365,93.52573370933538L1172.18,109.76284807920462L1178.995,96.77323168516165L1185.81,87.0309255123139" style="fill: none;" fill="none"></path></g><g><path stroke="rgb(0, 119, 187)" stroke-width="2px" d="M170.375,246.15466511249545L177.19,207.18553429841998L184.00500000000002,200.6907261013985L190.82000000000002,187.70101583004L197.635,194.195917904377L204.45,203.93813019990924L211.265,200.6907261013985L218.08,194.195917904377L224.895,207.18553429841998L231.71,216.92784047126773L238.52499999999998,184.4536117315293L245.34,184.4536117315293L252.155,158.4741911888123L258.97,151.9793829917908L265.785,135.7422686219216L272.6,135.7422686219216L279.41499999999996,142.23707681894305L286.22999999999996,148.7319788932801L293.045,148.7319788932801L299.86,151.9793829917908L306.675,155.22678709030154L313.49,151.9793829917908L320.305,151.9793829917908L327.12,148.7319788932801L333.935,145.48457479476932L340.75,148.7319788932801L347.565,145.48457479476932L354.38,142.23707681894305L361.195,142.23707681894305L368.01000000000005,142.23707681894305L374.82500000000005,151.9793829917908L381.64000000000004,142.23707681894305L388.455,132.49486452341083L395.27,132.49486452341083L402.085,129.2474604249001L408.9,125.99996244907385L415.715,125.99996244907385L422.53,125.99996244907385L429.345,125.99996244907385L436.16,119.50515425205236L442.975,122.7525583505631L449.79,125.99996244907385L456.605,129.2474604249001L463.42,129.2474604249001L470.23499999999996,129.2474604249001L477.04999999999995,122.7525583505631L483.86499999999995,109.76284807920462L490.68,116.25775015354162L497.495,106.51544398069387L504.31,109.76284807920462L511.125,109.76284807920462L517.94,125.99996244907385L524.755,113.01034605503088L531.57,116.25775015354162L538.385,106.51544398069387L545.2,116.25775015354162L552.015,132.49486452341083L558.8299999999999,90.27832961082464L565.645,64.29900294542318L572.4599999999999,83.78352141380316L579.275,70.79381114244467L586.09,57.80410087108618L592.905,70.79381114244467L599.72,64.29900294542318L606.535,61.05150496959692L613.35,74.04121524095541L620.1650000000001,64.29900294542318L626.98,64.29900294542318L633.7950000000001,48.06188857555395L640.61,51.30929267406469L647.425,61.05150496959692L654.24,74.04121524095541L661.055,61.05150496959692L667.87,64.29900294542318L674.685,64.29900294542318L681.5,61.05150496959692L688.315,70.79381114244467L695.13,70.79381114244467L701.945,67.54640704393393L708.76,61.05150496959692L715.575,61.05150496959692L722.39,67.54640704393393L729.205,67.54640704393393L736.0200000000001,64.29900294542318L742.835,64.29900294542318L749.6500000000001,61.05150496959692L756.465,77.28861933946615L763.2800000000001,54.556696772575435L770.0949999999999,70.79381114244467L776.91,67.54640704393393L783.7249999999999,67.54640704393393L790.54,64.29900294542318L797.3549999999999,70.79381114244467L804.17,70.79381114244467L810.985,74.04121524095541L817.8,67.54640704393393L824.615,70.79381114244467L831.43,57.80410087108618L838.245,74.04121524095541L845.06,74.04121524095541L851.875,61.05150496959692L858.69,67.54640704393393L865.505,57.80410087108618L872.32,64.29900294542318L879.135,61.05150496959692L885.95,74.04121524095541L892.765,61.05150496959692L899.58,64.29900294542318L906.3950000000001,61.05150496959692L913.21,57.80410087108618L920.0250000000001,57.80410087108618L926.84,54.556696772575435L933.6550000000001,61.05150496959692L940.4699999999999,64.29900294542318L947.285,61.05150496959692L954.0999999999999,64.29900294542318L960.915,64.29900294542318L967.7299999999999,67.54640704393393L974.545,64.29900294542318L981.36,61.05150496959692L988.175,54.556696772575435L994.99,51.30929267406469L1001.805,48.06188857555395L1008.62,48.06188857555395L1015.435,51.30929267406469L1022.25,41.566986501216945L1029.065,44.81439059972769L1035.88,48.06188857555395L1042.695,80.53611731529242L1049.51,77.28861933946615L1056.325,61.05150496959692L1063.14,70.79381114244467L1069.9550000000002,70.79381114244467L1076.77,67.54640704393393L1083.585,57.80410087108618L1090.4,44.81439059972769L1097.2150000000001,48.06188857555395L1104.03,74.04121524095541L1110.845,57.80410087108618L1117.6599999999999,51.30929267406469L1124.475,51.30929267406469L1131.29,44.81439059972769L1138.105,41.566986501216945L1144.9199999999998,51.30929267406469L1151.735,44.81439059972769L1158.55,57.80410087108618L1165.365,57.80410087108618L1172.18,44.81439059972769L1178.995,38.3195824027062L1185.81,31.82477420568472" style="fill: none;" fill="none"></path></g><g><path stroke="rgb(255, 112, 67)" stroke-width="2px" d="M170.375,327.3401900231838L177.19,320.84538182616234L184.00500000000002,320.84538182616234L190.82000000000002,317.59793078899384L197.635,311.1030756533146L204.45,307.85567155480385L211.265,304.6082674562931L218.08,304.6082674562931L224.895,298.11341232061386L231.71,288.3711530864239L238.52499999999998,255.89687740802768L245.34,226.67014664411548L252.155,210.43303227424624L258.97,207.18553429841998L265.785,203.93813019990924L272.6,203.93813019990924L279.41499999999996,207.18553429841998L286.22999999999996,210.43303227424624L293.045,207.18553429841998L299.86,207.18553429841998L306.675,213.680436372757L313.49,213.680436372757L320.305,213.680436372757L327.12,213.680436372757L333.935,210.43303227424624L340.75,210.43303227424624L347.565,213.680436372757L354.38,194.195917904377L361.195,168.21649736166003L368.01000000000005,164.9690932631493L374.82500000000005,161.72168916463858L381.64000000000004,168.21649736166003L388.455,171.4639014601708L395.27,168.21649736166003L402.085,171.4639014601708L408.9,171.4639014601708L415.715,171.4639014601708L422.53,161.72168916463858L429.345,155.22678709030154L436.16,158.4741911888123L442.975,155.22678709030154L449.79,161.72168916463858L456.605,168.21649736166003L463.42,174.71130555868152L470.23499999999996,171.4639014601708L477.04999999999995,161.72168916463858L483.86499999999995,174.71130555868152L490.68,161.72168916463858L497.495,168.21649736166003L504.31,164.9690932631493L511.125,168.21649736166003L517.94,164.9690932631493L524.755,164.9690932631493L531.57,164.9690932631493L538.385,164.9690932631493L545.2,164.9690932631493L552.015,158.4741911888123L558.8299999999999,158.4741911888123L565.645,158.4741911888123L572.4599999999999,161.72168916463858L579.275,164.9690932631493L586.09,158.4741911888123L592.905,158.4741911888123L599.72,161.72168916463858L606.535,161.72168916463858L613.35,161.72168916463858L620.1650000000001,155.22678709030154L626.98,151.9793829917908L633.7950000000001,148.7319788932801L640.61,148.7319788932801L647.425,142.23707681894305L654.24,145.48457479476932L661.055,138.98967272043234L667.87,138.98967272043234L674.685,138.98967272043234L681.5,138.98967272043234L688.315,164.9690932631493L695.13,171.4639014601708L701.945,168.21649736166003L708.76,168.21649736166003L715.575,168.21649736166003L722.39,168.21649736166003L729.205,164.9690932631493L736.0200000000001,161.72168916463858L742.835,158.4741911888123L749.6500000000001,161.72168916463858L756.465,158.4741911888123L763.2800000000001,158.4741911888123L770.0949999999999,161.72168916463858L776.91,161.72168916463858L783.7249999999999,161.72168916463858L790.54,161.72168916463858L797.3549999999999,158.4741911888123L804.17,158.4741911888123L810.985,155.22678709030154L817.8,158.4741911888123L824.615,145.48457479476932L831.43,161.72168916463858L838.245,148.7319788932801L845.06,138.98967272043234L851.875,135.7422686219216L858.69,135.7422686219216L865.505,132.49486452341083L872.32,138.98967272043234L879.135,142.23707681894305L885.95,132.49486452341083L892.765,132.49486452341083L899.58,138.98967272043234L906.3950000000001,142.23707681894305L913.21,145.48457479476932L920.0250000000001,145.48457479476932L926.84,145.48457479476932L933.6550000000001,151.9793829917908L940.4699999999999,151.9793829917908L947.285,151.9793829917908L954.0999999999999,155.22678709030154L960.915,158.4741911888123L967.7299999999999,164.9690932631493L974.545,161.72168916463858L981.36,164.9690932631493L988.175,155.22678709030154L994.99,155.22678709030154L1001.805,148.7319788932801L1008.62,151.9793829917908L1015.435,151.9793829917908L1022.25,151.9793829917908L1029.065,145.48457479476932L1035.88,142.23707681894305L1042.695,138.98967272043234L1049.51,142.23707681894305L1056.325,145.48457479476932L1063.14,145.48457479476932L1069.9550000000002,148.7319788932801L1076.77,145.48457479476932L1083.585,142.23707681894305L1090.4,135.7422686219216L1097.2150000000001,135.7422686219216L1104.03,142.23707681894305L1110.845,138.98967272043234L1117.6599999999999,132.49486452341083L1124.475,132.49486452341083L1131.29,129.2474604249001L1138.105,96.77323168516165L1144.9199999999998,113.01034605503088L1151.735,113.01034605503088L1158.55,116.25775015354162L1165.365,142.23707681894305L1172.18,142.23707681894305L1178.995,132.49486452341083L1185.81,125.99996244907385" style="fill: none;" fill="none"></path></g></g></g></g></g></g><g transform="translate(70, 378)" clip-path="url(#clip_1)"><clipPath id="clip_1"><rect width="1363" height="22"></rect></clipPath><g><g><line x1="0" y1="0" x2="0" y2="5" style="visibility: inherit;" fill="rgb(0, 0, 0)" stroke="rgb(204, 204, 204)" stroke-width="1px"></line><line x1="170.375" y1="0" x2="170.375" y2="5" style="visibility: inherit;" fill="rgb(0, 0, 0)" stroke="rgb(204, 204, 204)" stroke-width="1px"></line><line x1="340.75" y1="0" x2="340.75" y2="5" style="visibility: inherit;" fill="rgb(0, 0, 0)" stroke="rgb(204, 204, 204)" stroke-width="1px"></line><line x1="511.125" y1="0" x2="511.125" y2="5" style="visibility: inherit;" fill="rgb(0, 0, 0)" stroke="rgb(204, 204, 204)" stroke-width="1px"></line><line x1="681.5" y1="0" x2="681.5" y2="5" style="visibility: inherit;" fill="rgb(0, 0, 0)" stroke="rgb(204, 204, 204)" stroke-width="1px"></line><line x1="851.875" y1="0" x2="851.875" y2="5" style="visibility: inherit;" fill="rgb(0, 0, 0)" stroke="rgb(204, 204, 204)" stroke-width="1px"></line><line x1="1022.25" y1="0" x2="1022.25" y2="5" style="visibility: inherit;" fill="rgb(0, 0, 0)" stroke="rgb(204, 204, 204)" stroke-width="1px"></line><line x1="1192.625" y1="0" x2="1192.625" y2="5" style="visibility: inherit;" fill="rgb(0, 0, 0)" stroke="rgb(204, 204, 204)" stroke-width="1px"></line><line x1="1363" y1="0" x2="1363" y2="5" style="visibility: inherit;" fill="rgb(0, 0, 0)" stroke="rgb(204, 204, 204)" stroke-width="1px"></line></g><g transform="translate(0, 8)"><text x="0" y="0" dx="0em" dy="0.95em" style="text-anchor: middle; visibility: hidden; font-family: &quot;Helvetica Neue&quot;, sans-serif; font-size: 12px; font-weight: 200;" fill="rgb(50, 49, 63)" stroke="none" stroke-width="1px">-500.0</text><text x="170.375" y="0" dx="0em" dy="0.95em" style="text-anchor: middle; visibility: inherit; font-family: &quot;Helvetica Neue&quot;, sans-serif; font-size: 12px; font-weight: 200;" fill="rgb(50, 49, 63)" stroke="none" stroke-width="1px">0.000</text><text x="340.75" y="0" dx="0em" dy="0.95em" style="text-anchor: middle; visibility: inherit; font-family: &quot;Helvetica Neue&quot;, sans-serif; font-size: 12px; font-weight: 200;" fill="rgb(50, 49, 63)" stroke="none" stroke-width="1px">500.0</text><text x="511.125" y="0" dx="0em" dy="0.95em" style="text-anchor: middle; visibility: inherit; font-family: &quot;Helvetica Neue&quot;, sans-serif; font-size: 12px; font-weight: 200;" fill="rgb(50, 49, 63)" stroke="none" stroke-width="1px">1.000k</text><text x="681.5" y="0" dx="0em" dy="0.95em" style="text-anchor: middle; visibility: inherit; font-family: &quot;Helvetica Neue&quot;, sans-serif; font-size: 12px; font-weight: 200;" fill="rgb(50, 49, 63)" stroke="none" stroke-width="1px">1.500k</text><text x="851.875" y="0" dx="0em" dy="0.95em" style="text-anchor: middle; visibility: inherit; font-family: &quot;Helvetica Neue&quot;, sans-serif; font-size: 12px; font-weight: 200;" fill="rgb(50, 49, 63)" stroke="none" stroke-width="1px">2.000k</text><text x="1022.25" y="0" dx="0em" dy="0.95em" style="text-anchor: middle; visibility: inherit; font-family: &quot;Helvetica Neue&quot;, sans-serif; font-size: 12px; font-weight: 200;" fill="rgb(50, 49, 63)" stroke="none" stroke-width="1px">2.500k</text><text x="1192.625" y="0" dx="0em" dy="0.95em" style="text-anchor: middle; visibility: inherit; font-family: &quot;Helvetica Neue&quot;, sans-serif; font-size: 12px; font-weight: 200;" fill="rgb(50, 49, 63)" stroke="none" stroke-width="1px">3.000k</text><text x="1363" y="0" dx="0em" dy="0.95em" style="text-anchor: middle; visibility: hidden; font-family: &quot;Helvetica Neue&quot;, sans-serif; font-size: 12px; font-weight: 200;" fill="rgb(50, 49, 63)" stroke="none" stroke-width="1px">3.500k</text></g><line x1="0" y1="0" x2="1363" y2="0" fill="rgb(0, 0, 0)" stroke="rgb(204, 204, 204)" stroke-width="1px"></line></g></g></g></g></svg>